<svg xmlns="http://www.w3.org/2000/svg" xmlns:xlink="http://www.w3.org/1999/xlink" width="22" height="22" viewBox="0 0 22 22"><defs><path id="240na" d="M979.63 5770.96c0 .19-.07.37-.21.52l-4.78 4.77a.74.74 0 0 1-1.04-1.04l4.26-4.25-4.26-4.26a.74.74 0 0 1 1.04-1.04l4.78 4.77c.14.15.21.34.21.53zm7.37.05a10.99 10.99 0 1 1-21.97 0 10.99 10.99 0 0 1 21.97 0zm-1.48 0a9.52 9.52 0 0 0-19.02 0 9.53 9.53 0 0 0 9.51 9.51 9.53 9.53 0 0 0 9.51-9.51z"/></defs><g><g transform="translate(-965 -5760)"><use xlink:href="#240na"/><use fill="#c7b299" xlink:href="#240na"/></g></g></svg>